<svg width="50" height="83" viewBox="0 0 50 83" fill="none" xmlns="http://www.w3.org/2000/svg">
<rect x="50" y="-170" width="253" height="50" transform="rotate(90 50 -170)" fill="white"/>
<g clip-path="url(#clip0_428_2578)">
<path d="M31.8752 42.3965C30.4676 42.4184 29.0908 42.8113 27.8836 43.5356C26.6765 44.2598 25.6819 45.2898 25.0002 46.5215C24.3185 45.2898 23.3239 44.2598 22.1167 43.5356C20.9096 42.8113 19.5328 42.4184 18.1252 42.3965C15.8814 42.494 13.7673 43.4756 12.2449 45.1268C10.7225 46.778 9.9155 48.9646 10.0002 51.209C10.0002 56.8927 15.9827 63.1002 21.0002 67.309C22.1205 68.2504 23.5369 68.7665 25.0002 68.7665C26.4635 68.7665 27.8799 68.2504 29.0002 67.309C34.0177 63.1002 40.0002 56.8927 40.0002 51.209C40.0849 48.9646 39.2779 46.778 37.7555 45.1268C36.2331 43.4756 34.119 42.494 31.8752 42.3965ZM27.3939 65.3965C26.7239 65.9607 25.8761 66.2701 25.0002 66.2701C24.1242 66.2701 23.2765 65.9607 22.6064 65.3965C16.1839 60.0077 12.5002 54.8377 12.5002 51.209C12.4147 49.6274 12.9581 48.0761 14.0119 46.8936C15.0656 45.7111 16.5442 44.9932 18.1252 44.8965C19.7061 44.9932 21.1847 45.7111 22.2385 46.8936C23.2922 48.0761 23.8356 49.6274 23.7502 51.209C23.7502 51.5405 23.8819 51.8584 24.1163 52.0929C24.3507 52.3273 24.6687 52.459 25.0002 52.459C25.3317 52.459 25.6497 52.3273 25.8841 52.0929C26.1185 51.8584 26.2502 51.5405 26.2502 51.209C26.1647 49.6274 26.7081 48.0761 27.7619 46.8936C28.8156 45.7111 30.2942 44.9932 31.8752 44.8965C33.4561 44.9932 34.9347 45.7111 35.9885 46.8936C37.0422 48.0761 37.5856 49.6274 37.5002 51.209C37.5002 54.8377 33.8164 60.0077 27.3939 65.3915V65.3965Z" fill="#0B3F37"/>
</g>
<defs>
<clipPath id="clip0_428_2578">
<rect width="30" height="30" fill="white" transform="translate(10 40)"/>
</clipPath>
</defs>
</svg>
